<svg width="22" height="21" viewBox="0 0 22 21" fill="none" xmlns="http://www.w3.org/2000/svg">
<path d="M1 1.625H4.5L6.845 13.3413C6.92501 13.7441 7.14417 14.106 7.4641 14.3635C7.78404 14.6211 8.18436 14.7579 8.595 14.75H17.1C17.5106 14.7579 17.911 14.6211 18.2309 14.3635C18.5508 14.106 18.77 13.7441 18.85 13.3413L20.25 6H5.375M8.875 19.125C8.875 19.6082 8.48325 20 8 20C7.51675 20 7.125 19.6082 7.125 19.125C7.125 18.6417 7.51675 18.25 8 18.25C8.48325 18.25 8.875 18.6417 8.875 19.125ZM18.5 19.125C18.5 19.6082 18.1083 20 17.625 20C17.1418 20 16.75 19.6082 16.75 19.125C16.75 18.6417 17.1418 18.25 17.625 18.25C18.1083 18.25 18.5 18.6417 18.5 19.125Z" stroke="#2E3A59" stroke-width="2" stroke-linecap="round" stroke-linejoin="round"/>
</svg>
