<svg width="20" height="18" viewBox="0 0 20 18" fill="none" xmlns="http://www.w3.org/2000/svg">
<path d="M10 17.992C9.35502 17.42 8.62602 16.825 7.85502 16.192H7.84502C5.13002 13.972 2.05302 11.46 0.694023 8.44997C0.24754 7.4917 0.0109268 6.4491 1.1406e-05 5.39197C-0.00297039 3.94145 0.578794 2.55095 1.61383 1.53474C2.64887 0.518518 4.04981 -0.0376365 5.50002 -0.008031C6.68065 -0.00616619 7.83586 0.33505 8.82802 0.974969C9.26399 1.25794 9.65844 1.60022 10 1.99197C10.3435 1.60176 10.7381 1.25968 11.173 0.974969C12.1648 0.334924 13.3197 -0.00631245 14.5 -0.008031C15.9502 -0.0376365 17.3512 0.518518 18.3862 1.53474C19.4213 2.55095 20.003 3.94145 20 5.39197C19.9898 6.45078 19.7532 7.49516 19.306 8.45497C17.947 11.465 14.871 13.976 12.156 16.192L12.146 16.2C11.374 16.829 10.646 17.424 10.001 18L10 17.992ZM5.50002 1.99197C4.56853 1.98031 3.67009 2.33681 3.00002 2.98397C2.35441 3.61813 1.99358 4.48701 1.99994 5.39197C2.01135 6.16247 2.18585 6.92182 2.51202 7.61997C3.15353 8.91868 4.01913 10.094 5.06902 11.092C6.06002 12.092 7.20002 13.06 8.18602 13.874C8.45902 14.099 8.73702 14.326 9.01502 14.553L9.19002 14.696C9.45702 14.914 9.73302 15.14 10 15.362L10.013 15.35L10.019 15.345H10.025L10.034 15.338H10.044L10.062 15.323L10.103 15.29L10.11 15.284L10.121 15.276H10.127L10.136 15.268L10.974 14.58C11.255 14.351 11.533 14.124 11.806 13.899C12.792 13.085 13.933 12.118 14.924 11.113C15.9741 10.1155 16.8397 8.94048 17.481 7.64197C17.8131 6.93777 17.9901 6.17047 18.0001 5.39197C18.0042 4.48981 17.6435 3.62426 17 2.99197C16.3312 2.34189 15.4326 1.98245 14.5 1.99197C13.3619 1.9823 12.274 2.45934 11.51 3.30297L10 5.04297L8.49002 3.30297C7.72609 2.45934 6.6381 1.9823 5.50002 1.99197Z" fill="#2E3A59"/>
</svg>
