<svg width="169" height="85" viewBox="0 0 169 85" fill="none" xmlns="http://www.w3.org/2000/svg">
<path d="M7.70365 85C6.21771 85 4.89894 84.6868 3.74734 84.0605C2.63289 83.471 1.74133 82.6235 1.07266 81.5182C0.403991 80.4129 0.0696556 79.1417 0.0696556 77.7048C0.0696556 77.0048 0.31112 76.4705 0.794049 76.1021C1.31413 75.7705 1.9085 75.5863 2.57717 75.5494C3.28299 75.5126 3.87736 75.6599 4.36029 75.9915C4.88037 76.3231 5.14041 76.839 5.14041 77.539C5.14041 78.497 5.41902 79.2338 5.97625 79.7497C6.53347 80.2655 7.22072 80.5234 8.03798 80.5234C9.9697 80.5234 11.79 79.4365 13.4988 77.2627C15.2076 75.0889 16.7493 71.9387 18.1238 67.8121L34.5619 17.7406C35.6021 14.6825 36.1036 12.2139 36.0664 10.3349C36.0293 8.45579 35.4906 7.07412 34.4505 6.18986C33.4475 5.30559 31.9615 4.86346 29.9927 4.86346C28.2096 4.86346 26.5193 5.2319 24.9219 5.96879C23.3617 6.66883 21.9129 7.68205 20.5756 9.00845C19.2754 10.298 18.1423 11.8639 17.1765 13.7061C16.2106 15.5115 15.4677 17.5379 14.9476 19.7854C14.4275 22.0329 14.1675 24.4278 14.1675 26.9701C14.1675 28.6281 14.2603 30.3045 14.4461 31.9993C14.669 33.6573 14.9847 35.2785 15.3934 36.8628C15.8391 38.4471 16.3592 39.9393 16.9536 41.3394C17.5851 42.7395 18.3095 44.0106 19.1268 45.1528C19.5354 45.7423 19.6097 46.295 19.3497 46.8108C19.0896 47.3266 18.7553 47.7319 18.3467 48.0267C17.6037 48.5425 17.0093 48.782 16.5635 48.7451C16.1178 48.7083 15.6905 48.3951 15.2819 47.8056C14.3161 46.3318 13.4431 44.7659 12.663 43.1079C11.8828 41.4131 11.2142 39.663 10.6569 37.8576C10.0997 36.0522 9.69109 34.2469 9.43105 32.4415C9.17101 30.6361 9.04099 28.8676 9.04099 27.1359C9.04099 24.041 9.3939 21.1487 10.0997 18.459C10.8055 15.7325 11.79 13.264 13.053 11.0533C14.3532 8.80581 15.8949 6.8899 17.678 5.30559C19.4611 3.68444 21.4114 2.43173 23.5289 1.54746C25.6463 0.663197 27.8938 0.221063 30.2713 0.221063C33.4289 0.221063 35.8993 0.939529 37.6824 2.37646C39.4655 3.77655 40.4871 5.85826 40.7471 8.62159C41.0443 11.3481 40.5242 14.7746 39.1869 18.9012L22.693 69.0832C21.5786 72.5466 20.2412 75.4573 18.681 77.8153C17.1208 80.1734 15.4119 81.9603 13.5545 83.1762C11.6971 84.3921 9.74681 85 7.70365 85Z" fill="black"/>
<path d="M0 77.7048C0 76.3047 0.315762 74.9046 0.947285 73.5045C1.54166 72.1045 2.43322 70.7044 3.62197 69.3043C4.81071 67.9042 6.27808 66.5041 8.02405 65.104C9.73287 63.7408 11.7203 62.3407 13.9864 60.9038C16.2524 59.5037 18.7599 58.0852 21.5089 56.6482C24.2579 55.1745 26.7468 53.7375 28.9757 52.3374C31.2046 50.9005 33.2292 49.4636 35.0495 48.0267C36.8698 46.5897 38.4857 45.1528 39.8974 43.7159C41.3461 42.2421 42.6463 40.7867 43.7979 39.3498C44.9867 37.9129 46.064 36.4759 47.0298 35.039C48.0328 33.5652 48.9616 32.1099 49.816 30.6729C50.1875 30.0098 50.6332 29.715 51.1533 29.7887C51.7105 29.8255 52.1192 30.0834 52.3792 30.5624C52.6764 31.0045 52.6392 31.5572 52.2678 32.2204C51.1533 34.21 49.9646 36.1812 48.7015 38.1339C47.4385 40.0498 46.0083 41.9473 44.4109 43.8264C42.8135 45.6686 40.9932 47.5108 38.9501 49.3531C36.9069 51.1584 34.5666 52.9822 31.929 54.8244C29.2543 56.6298 26.2082 58.4536 22.7905 60.2958C20.5616 61.5117 18.5185 62.7091 16.661 63.8882C14.7665 65.0672 13.1134 66.2278 11.7017 67.3699C10.2901 68.549 9.10135 69.6911 8.1355 70.7965C7.13249 71.9387 6.38952 73.0624 5.90659 74.1677C5.38651 75.3099 5.12648 76.4521 5.12648 77.5943C5.12648 78.2943 4.86644 78.8101 4.34636 79.1417C3.82628 79.5102 3.23191 79.6944 2.56324 79.6944C1.89457 79.7312 1.30019 79.5839 0.780116 79.2523C0.260039 78.9207 0 78.4048 0 77.7048Z" fill="black"/>
<path d="M46.1927 57.1456C44.4839 57.1456 43.1465 56.7403 42.1807 55.9298C41.252 55.0824 40.7505 53.8481 40.6762 52.2269C40.6019 50.5689 40.9548 48.5609 41.7349 46.2029L47.3072 29.6229C47.5672 28.886 47.8644 28.407 48.1987 28.186C48.5702 27.9649 49.1088 27.8544 49.8147 27.8544C50.9663 27.8544 51.6907 28.0386 51.9879 28.407C52.3222 28.7386 52.3593 29.2729 52.0993 30.0098L46.1927 47.474C45.8584 48.3951 45.6355 49.2609 45.524 50.0715C45.4497 50.8821 45.5798 51.5269 45.9141 52.0058C46.2856 52.4848 46.9728 52.7243 47.9758 52.7243C49.276 52.7243 50.6877 52.1716 52.2107 51.0663C53.7338 49.961 55.2941 48.4135 56.8914 46.4239C58.526 44.4343 60.1233 42.0947 61.6836 39.4051C63.2438 36.6786 64.6926 33.6942 66.0299 30.4519L66.3085 29.6229C66.5686 28.886 66.8658 28.407 67.2001 28.186C67.5716 27.9649 68.1102 27.8544 68.8161 27.8544C69.9677 27.8544 70.6921 28.0386 70.9892 28.407C71.3236 28.7386 71.3607 29.2729 71.1007 30.0098L65.0826 48.0819C64.4511 49.9978 64.1539 51.3242 64.1911 52.0611C64.2282 52.7612 64.674 53.1112 65.5284 53.1112C66.0485 53.1112 66.4386 53.3322 66.6986 53.7744C66.9586 54.1797 67.0515 54.6586 66.9772 55.2113C66.9401 55.7271 66.7172 56.1877 66.3085 56.593C65.8999 57.0351 65.3055 57.2562 64.5254 57.2562C62.8909 57.2562 61.665 56.943 60.8477 56.3166C60.0676 55.7271 59.5847 54.9718 59.3989 54.0507C59.2132 53.0928 59.2132 52.098 59.3989 51.0663C59.5847 49.9978 59.8262 49.0215 60.1233 48.1372L60.7363 46.3687C59.6218 48.1003 58.4702 49.6294 57.2815 50.9558C56.0927 52.2822 54.8668 53.4059 53.6038 54.327C52.3779 55.2481 51.1334 55.9482 49.8704 56.4272C48.6445 56.9061 47.4186 57.1456 46.1927 57.1456Z" fill="black"/>
<path d="M64.5211 57.2562C63.8153 57.2562 63.3509 57.0351 63.128 56.593C62.9051 56.1877 62.868 55.7271 63.0166 55.2113C63.128 54.6586 63.4252 54.1797 63.9081 53.7744C64.3539 53.3322 64.9297 53.1112 65.6355 53.1112C66.6757 53.1112 67.9944 52.669 69.5918 51.7848C71.1892 50.9005 72.9538 49.6847 74.8855 48.1372C76.8172 46.5529 78.8232 44.7291 80.9035 42.6658C83.021 40.6025 85.1013 38.3734 87.1444 35.9785C89.2247 33.5468 91.175 31.0598 92.9953 28.5176C94.8527 25.9753 96.4873 23.4514 97.8989 20.946C99.3105 18.4406 100.425 16.0457 101.242 13.7614C102.06 11.4402 102.468 9.34005 102.468 7.46099C102.468 6.76094 102.691 6.24512 103.137 5.91352C103.62 5.54508 104.177 5.36086 104.808 5.36086C105.44 5.36086 105.979 5.54508 106.424 5.91352C106.907 6.24512 107.149 6.76094 107.149 7.46099C107.149 9.22952 106.777 11.2007 106.034 13.3745C105.329 15.5115 104.326 17.7774 103.025 20.1723C101.762 22.5672 100.276 24.9989 98.5676 27.4675C96.8587 29.8992 95.0013 32.3309 92.9953 34.7627C91.0264 37.1944 88.9833 39.5156 86.8658 41.7263C84.7484 43.9369 82.6309 46.0002 80.5134 47.9161C78.396 49.7952 76.3528 51.4348 74.384 52.8348C72.4151 54.2349 70.5948 55.3218 68.9232 56.0956C67.2515 56.8693 65.7841 57.2562 64.5211 57.2562Z" fill="black"/>
<path d="M86.0287 57.3667C84.1341 57.3667 82.6482 56.9983 81.5709 56.2614C80.4936 55.5245 79.7506 54.5665 79.342 53.3875C78.9705 52.1716 78.8405 50.8637 78.9519 49.4636C79.0634 48.0267 79.342 46.6081 79.7877 45.2081L90.5979 12.3244C91.9724 8.01365 93.4955 4.88188 95.1672 2.92913C96.876 0.976377 98.9192 0 101.297 0C102.485 0 103.507 0.313177 104.361 0.939529C105.253 1.56588 105.94 2.43173 106.423 3.53706C106.943 4.64239 107.203 5.95037 107.203 7.46099C107.203 8.16103 106.962 8.67685 106.479 9.00845C106.033 9.34005 105.494 9.50585 104.863 9.50585C104.231 9.50585 103.674 9.34005 103.191 9.00845C102.745 8.67685 102.523 8.16103 102.523 7.46099C102.523 6.83463 102.467 6.30039 102.355 5.85826C102.244 5.41612 102.058 5.0661 101.798 4.80819C101.538 4.55028 101.148 4.42132 100.628 4.42132C100.034 4.42132 99.4578 4.67924 98.9006 5.19506C98.3805 5.67403 97.8047 6.57672 97.1732 7.90312C96.5788 9.19267 95.873 11.0349 95.0557 13.4298L84.6913 45.2081C84.3941 46.1292 84.1341 47.0503 83.9112 47.9714C83.7255 48.8557 83.6697 49.6847 83.744 50.4584C83.8183 51.1953 84.1155 51.8032 84.6356 52.2822C85.1557 52.7243 85.9915 52.9454 87.1431 52.9454C88.109 52.9454 89.0934 52.6875 90.0964 52.1716C91.1366 51.6558 92.1396 50.9558 93.1054 50.0715C94.1084 49.1873 95.0372 48.174 95.8916 47.0319C96.746 45.8528 97.5075 44.6001 98.1762 43.2737C98.882 41.9473 99.4392 40.6025 99.8479 39.2393C100.034 38.6866 100.201 38.1339 100.349 37.5813C100.498 37.0286 100.609 36.4759 100.684 35.9233C100.795 35.3706 100.851 34.8364 100.851 34.3205C100.257 33.6942 99.8293 33.1415 99.5693 32.6625C99.3464 32.1467 99.2349 31.5388 99.2349 30.8387C99.2349 30.0282 99.495 29.3834 100.015 28.9044C100.535 28.3886 101.204 28.1307 102.021 28.1307C102.578 28.1307 103.061 28.2596 103.47 28.5176C103.878 28.7386 104.213 29.0886 104.473 29.5676C104.77 30.0097 104.974 30.5624 105.086 31.2256C105.234 31.852 105.309 32.5704 105.309 33.381C105.309 35.4075 104.974 37.526 104.306 39.7367C103.674 41.9105 102.764 44.0475 101.575 46.1476C100.387 48.2477 98.9935 50.1452 97.3961 51.84C95.7987 53.5349 94.0341 54.8797 92.1024 55.8745C90.1707 56.8693 88.1461 57.3667 86.0287 57.3667Z" fill="black"/>
<path d="M108.834 34.7074C107.162 34.7074 105.825 34.5232 104.822 34.1547C103.819 33.7495 102.778 33.1415 101.701 32.3309C101.255 32.0362 101.032 31.6862 101.032 31.2809C101.032 30.8756 101.162 30.5071 101.422 30.1756C101.645 29.8071 101.924 29.5492 102.258 29.4018C102.593 29.2176 102.89 29.236 103.15 29.4571C103.781 29.9361 104.543 30.3045 105.434 30.5624C106.326 30.8203 107.589 30.9493 109.224 30.9493C110.635 30.9493 112.065 30.8387 113.514 30.6177C115 30.3598 116.319 30.0466 117.471 29.6782C118.659 29.2729 119.495 28.8492 119.978 28.407C120.35 28.0386 120.721 28.0202 121.093 28.3518C121.464 28.6465 121.687 29.0702 121.761 29.6229C121.835 30.1756 121.613 30.6729 121.093 31.1151C119.607 32.2573 117.731 33.1415 115.465 33.7679C113.236 34.3942 111.025 34.7074 108.834 34.7074Z" fill="black"/>
<path d="M117.192 57.2562C115.557 57.2562 114.332 56.9614 113.514 56.3719C112.734 55.7824 112.251 55.0271 112.065 54.106C111.88 53.148 111.88 52.1532 112.065 51.1216C112.251 50.0531 112.493 49.0583 112.79 48.1372L118.919 29.6229C119.179 28.886 119.477 28.407 119.811 28.186C120.182 27.9649 120.721 27.8544 121.427 27.8544C122.578 27.8544 123.303 28.0386 123.6 28.407C123.934 28.7386 123.972 29.2729 123.711 30.0098L117.749 48.0819C117.081 50.0347 116.765 51.3611 116.802 52.0611C116.876 52.7612 117.341 53.1112 118.195 53.1112C118.715 53.1112 119.105 53.3322 119.365 53.7744C119.625 54.1797 119.718 54.6586 119.644 55.2113C119.607 55.7271 119.384 56.1877 118.975 56.593C118.566 57.0351 117.972 57.2562 117.192 57.2562ZM124.882 19.3433C124.139 19.3433 123.507 19.1038 122.987 18.6248C122.467 18.1459 122.207 17.4458 122.207 16.5247C122.207 15.5299 122.523 14.5904 123.154 13.7061C123.823 12.8218 124.845 12.3797 126.219 12.3797C126.999 12.3797 127.649 12.6192 128.169 13.0982C128.689 13.5403 128.949 14.2404 128.949 15.1983C128.949 16.1931 128.615 17.1326 127.946 18.0169C127.315 18.9012 126.293 19.3433 124.882 19.3433Z" fill="black"/>
<path d="M116.924 57.2562C116.218 57.2562 115.754 57.0351 115.531 56.593C115.308 56.1877 115.271 55.7271 115.42 55.2113C115.531 54.6586 115.828 54.1797 116.311 53.7744C116.757 53.3322 117.333 53.1112 118.039 53.1112C119.079 53.1112 120.398 52.669 121.995 51.7848C123.592 50.9005 125.357 49.6847 127.289 48.1372C129.22 46.5529 131.226 44.7291 133.307 42.6658C135.424 40.6025 137.504 38.3734 139.548 35.9785C141.628 33.5468 143.578 31.0598 145.398 28.5176C147.256 25.9753 148.89 23.4514 150.302 20.946C151.714 18.4406 152.828 16.0457 153.645 13.7614C154.463 11.4402 154.871 9.34005 154.871 7.46099C154.871 6.76094 155.094 6.24512 155.54 5.91352C156.023 5.54508 156.58 5.36086 157.212 5.36086C157.843 5.36086 158.382 5.54508 158.828 5.91352C159.311 6.24512 159.552 6.76094 159.552 7.46099C159.552 9.22952 159.18 11.2007 158.438 13.3745C157.732 15.5115 156.729 17.7774 155.429 20.1723C154.165 22.5672 152.68 24.9989 150.971 27.4675C149.262 29.8992 147.404 32.3309 145.398 34.7627C143.43 37.1944 141.386 39.5156 139.269 41.7263C137.152 43.9369 135.034 46.0002 132.917 47.9161C130.799 49.7952 128.756 51.4348 126.787 52.8348C124.818 54.2349 122.998 55.3218 121.326 56.0956C119.655 56.8693 118.187 57.2562 116.924 57.2562Z" fill="black"/>
<path d="M138.823 57.2562C136.743 57.2562 135.09 56.6298 133.864 55.3771C132.675 54.0876 132.006 52.3006 131.858 50.0162C131.709 47.6951 132.136 44.987 133.139 41.8921L142.947 12.3244C144.321 8.01365 145.844 4.88188 147.516 2.92913C149.225 0.976377 151.268 0 153.645 0C154.834 0 155.856 0.313177 156.71 0.939529C157.602 1.56588 158.289 2.43173 158.772 3.53706C159.292 4.64239 159.552 5.95037 159.552 7.46099C159.552 8.16103 159.311 8.67685 158.828 9.00845C158.382 9.34005 157.843 9.50585 157.212 9.50585C156.58 9.50585 156.023 9.34005 155.54 9.00845C155.094 8.67685 154.871 8.16103 154.871 7.46099C154.871 6.83463 154.816 6.30039 154.704 5.85826C154.593 5.41612 154.407 5.0661 154.147 4.80819C153.887 4.55028 153.497 4.42132 152.977 4.42132C152.382 4.42132 151.807 4.67924 151.249 5.19506C150.729 5.67403 150.172 6.57672 149.578 7.90312C148.983 9.19267 148.259 11.0349 147.404 13.4298L137.709 42.8316C136.966 45.0791 136.557 46.9766 136.483 48.5241C136.446 50.0715 136.724 51.2321 137.319 52.0058C137.913 52.7427 138.767 53.1112 139.882 53.1112C140.402 53.1112 140.792 53.3322 141.052 53.7744C141.312 54.1797 141.405 54.6586 141.331 55.2113C141.256 55.7271 141.015 56.1877 140.606 56.593C140.198 57.0351 139.603 57.2562 138.823 57.2562Z" fill="black"/>
<path d="M138.854 57.2562C138.334 57.2562 137.944 57.0351 137.684 56.593C137.424 56.1877 137.331 55.7271 137.405 55.2113C137.442 54.6586 137.665 54.1797 138.074 53.7744C138.483 53.3322 139.077 53.1112 139.857 53.1112C140.749 53.1112 141.77 52.669 142.922 51.7848C144.036 50.9005 145.355 49.5188 146.878 47.6398C148.401 45.7239 150.203 43.2369 152.283 40.1788C154.364 37.0839 156.797 33.3442 159.583 28.9597C159.917 28.4439 160.344 28.2228 160.865 28.2965C161.422 28.3702 161.868 28.6097 162.202 29.015C162.536 29.4202 162.555 29.8624 162.258 30.3413C159.1 35.6469 156.37 40.0498 154.066 43.5501C151.8 47.0134 149.813 49.7583 148.104 51.7848C146.395 53.7744 144.816 55.1929 143.368 56.0403C141.882 56.8509 140.377 57.2562 138.854 57.2562Z" fill="black"/>
<path d="M156.184 57.1456C154.104 57.1456 152.803 56.3351 152.283 54.7139C151.763 53.0559 152.023 50.661 153.063 47.5293L158.97 29.6229C159.23 28.886 159.527 28.407 159.861 28.186C160.233 27.9649 160.772 27.8544 161.477 27.8544C162.629 27.8544 163.353 28.0386 163.651 28.407C163.985 28.7386 164.022 29.2729 163.762 30.0098L156.964 50.6242C156.704 51.3979 156.611 51.9874 156.685 52.3927C156.76 52.7612 157.038 52.9454 157.521 52.9454C157.855 52.9454 158.19 52.8348 158.524 52.6138C158.858 52.3927 159.23 52.0611 159.639 51.619C160.084 51.1768 160.604 50.6058 161.199 49.9057C161.496 49.5373 161.793 49.3346 162.09 49.2978C162.388 49.2241 162.741 49.3346 163.149 49.6294C163.744 49.9978 164.096 50.3663 164.208 50.7347C164.356 51.1032 164.319 51.4716 164.096 51.84C163.316 53.0559 162.499 54.0691 161.645 54.8797C160.827 55.6534 159.954 56.2245 159.026 56.593C158.134 56.9614 157.187 57.1456 156.184 57.1456ZM164.932 19.3433C164.189 19.3433 163.558 19.1038 163.038 18.6248C162.518 18.1459 162.258 17.4458 162.258 16.5247C162.258 15.5299 162.573 14.5904 163.205 13.7061C163.874 12.8218 164.895 12.3797 166.27 12.3797C167.05 12.3797 167.7 12.6192 168.22 13.0982C168.74 13.5403 169 14.2404 169 15.1983C169 16.1931 168.666 17.1326 167.997 18.0169C167.365 18.9012 166.344 19.3433 164.932 19.3433Z" fill="black"/>
</svg>
